<?xml version="1.0" encoding="utf-8"?>
<svg width="532px" height="532px" viewbox="0 0 532 532" version="1.1" xmlns:xlink="http://www.w3.org/1999/xlink" xmlns="http://www.w3.org/2000/svg">
  <defs>
    <rect width="531.3" height="531.30005" id="slice_1" />
    <clipPath id="clip_1">
      <use xlink:href="#slice_1" clip-rule="evenodd" />
    </clipPath>
  </defs>
  <g id="Slice" clip-path="url(#clip_1)">
    <use xlink:href="#slice_1" stroke="none" fill="none" />
    <g id="Component" transform="translate(43.337463 -35.686707)">
      <path d="M465.952 385.757C461.862 379.627 452.015 335.136 445.724 328.293C446.199 302.011 453.366 211.014 432.894 170.108C437.2 165.694 448.644 127.672 445.724 113.299C455.369 83.1968 393.411 35.3872 369.831 22.4679C260.242 -37.1027 101.439 28.6531 51.5998 139.007C21.6502 205.465 21.0982 279.874 17.7121 351.385C17.3118 366.691 15.9242 382.118 15.9397 397.406C18.1052 410.84 28.6131 424.521 20.6472 435.692C11.8477 441.862 -5.93678 456.892 1.98162 465.416C6.62226 469.332 14.0351 467.06 19.0709 470.826C21.6347 472.28 23.2339 475.466 26.232 475.951C53.6199 474.897 72.9464 474.807 100.419 473.681C112.445 473.282 130.759 478.439 144.563 468.173C192.783 495.361 172.614 455.916 182.364 427.833C212.057 438.01 271.205 470.464 302.855 471.512C328.574 474.735 352.625 459.551 377.91 463.008C409.322 474.837 446.136 477.467 474.909 457.452C482.09 452.21 490.079 458.283 499.129 452.622C516.719 444.094 474.829 395.217 465.952 385.757Z" transform="translate(-20.647223 58.5679)" id="ðŸŽ¨-Background" fill="#FFFFFF" fill-rule="evenodd" stroke="none" />
      <path d="M452.738 164.526C452.348 162.256 455.434 160.562 456.628 162.863C465.299 179.577 468.773 198.934 471.845 217.395C474.947 236.051 476.997 254.784 477.11 273.723C477.197 288.291 475.892 303.027 473.442 317.605L473.74 318.642L473.74 318.642C474.29 320.548 474.845 322.452 475.407 324.355L476.253 327.208C477.889 332.686 479.439 338.189 481.12 343.654C484.629 355.059 488.323 366.496 492.848 377.533C497.264 388.304 502.634 398.69 509.017 408.398C515.169 417.756 524.932 425.669 529.267 436.063C530.777 439.684 528.543 444.472 524.371 443.894C524.1 444.225 523.686 444.466 523.125 444.516C519.885 444.803 516.849 444.53 513.617 444.222C511.812 444.051 511.815 441.55 513.617 441.379C514.99 441.248 516.327 441.133 517.663 441.054C508.419 435.502 501.824 424.66 496.551 415.783C489.775 404.379 484.656 391.919 480.484 379.319C476.199 366.381 473.165 353.174 470.727 339.764C470.448 338.221 470.181 336.676 469.926 335.129C466.845 348.404 462.878 361.437 458.176 373.962L457.518 375.705C446.679 404.187 432 432.943 407.584 451.769C406.476 452.623 405.345 453.433 404.203 454.226L405.592 455.033C406.975 455.833 408.337 456.601 409.668 457.231C414.602 459.564 419.958 461.343 425.256 462.603C436.198 465.208 447.689 464.462 458.852 464.825C462.514 464.944 464.597 470.509 460.854 472.316C448.524 478.268 435.206 477.005 422.479 472.817C416.182 470.743 410.272 467.841 404.805 464.052C402.544 462.486 399.92 460.553 397.704 458.319C373.286 472.169 342.937 473.719 315.76 468.765C301.637 466.191 287.951 461.489 275.91 453.448C264.328 445.715 256.072 435.923 250.178 423.238C249.655 422.114 251.109 420.714 252.001 421.813C270.515 444.607 302.376 454.118 330.406 455.928C345.362 456.894 360.661 456.091 375.04 451.555C388.68 447.25 400.384 439.36 410.156 428.867C429.964 407.598 441.833 378.663 450.357 351.127C459.63 321.17 464.046 289.652 464.957 258.302C465.418 242.418 464.837 226.401 462.377 210.693C459.936 195.115 455.405 180.038 452.738 164.526ZM175.155 29.5786C176.466 28.903 177.39 30.6611 176.278 31.526C153.191 49.4739 132.515 72.2318 115.781 96.3188C84.9195 140.744 65.1271 192.152 56.013 245.57C50.6316 277.116 49.2264 309.14 49.7639 341.107C49.9768 353.805 50.6923 366.464 51.4881 379.128L52.3866 393.165C52.8038 399.705 53.1522 406.19 52.8829 412.762L52.8095 414.28C52.3824 421.927 53.1242 429.636 51.232 437.096C50.2612 440.922 44.9386 441.524 43.0113 438.185C42.6337 437.531 42.2809 436.857 41.9384 436.176C37.4215 443.643 31.5717 450.319 25.0812 456.282C28.1836 455.613 31.3158 455.186 34.5317 455.576C39.6294 456.196 44.2019 458.191 47.4374 461.688C50.6491 460.221 53.9516 459.211 57.7493 459.19C60.5463 459.175 62.6438 462.527 61.0477 465.017C57.8639 469.987 53.4213 472.773 48.3731 475.527C44.7955 477.479 40.5257 475.81 39.2047 471.95L39.129 471.716C37.6423 466.834 29.7353 467.623 26.0046 468.378L24.9067 468.605C17.9623 470.07 11.181 471.945 4.10649 470.011C-0.456776 468.764 -1.64944 461.8 2.74979 459.489C16.647 452.189 28.3136 442.383 40.3031 432.537C37.6557 425.958 36.1525 418.607 34.4192 411.916C31.9792 402.499 31.2663 392.367 30.3852 382.694C28.7108 364.303 28.0721 345.711 28.2517 327.248C28.8593 264.886 39.3807 202.33 66.2558 145.859C78.0297 121.121 93.4972 98.2307 111.78 77.9693C129.955 57.8272 151.182 41.9218 175.155 29.5786ZM153.639 334.983C152.926 333.981 154.318 332.656 155.294 333.305C176.424 347.375 191.088 368.74 200.55 392.21C209.915 415.446 215.666 443.907 206.429 468.137C204.959 471.996 197.918 473.429 197.197 468.137C193.977 444.505 193.476 420.839 186.396 397.864C179.376 375.088 167.365 354.232 153.639 334.983ZM137.255 411.704C137.37 411.286 138.043 411.358 138.014 411.808C137.485 420.142 137.126 428.576 136.092 436.864C135.589 440.891 134.925 444.893 134.36 448.911C133.78 453.032 133.868 457.192 131.504 460.711C128.372 465.377 120.05 464.064 120.329 457.644C120.522 453.215 122.53 450.372 124.411 446.484C125.617 443.992 126.669 441.416 127.682 438.828L129.189 434.946C132.183 427.247 135.048 419.678 137.255 411.704ZM99.4168 389.628C99.5447 388.973 100.588 389.13 100.557 389.784C99.9925 401.579 98.6802 413.242 96.625 424.864C95.688 430.162 94.5953 435.43 93.4396 440.683L92.9408 442.933C91.7048 448.466 90.9072 454.97 88.1381 459.913C85.3711 464.852 78.8011 461.265 79.6523 456.286C80.6469 450.473 84.166 444.626 86.2119 439.043C88.1 433.889 89.7507 428.644 91.2931 423.374C94.5399 412.28 97.2028 400.979 99.4168 389.628ZM169.879 422.374L170.125 422.118C171.086 421.059 172.521 421.765 172.98 422.883C174.859 427.465 173.919 432.867 173.784 437.732L173.759 438.793C173.659 443.72 173.729 448.335 171.525 452.884C168.849 458.407 161.797 454.977 161.251 450.063C160.655 444.701 163.157 439.452 164.772 434.43C165.799 431.238 166.547 427.919 168.108 425.021C166.773 425.255 165.44 425.722 164.219 426.06C163.673 426.21 163.466 425.396 163.988 425.208C166.006 424.483 168.284 423.939 169.879 422.374L169.879 422.374ZM451.184 438.634C450.54 437.903 451.343 436.929 452.18 437.324C462.229 442.082 471.628 445.177 482.716 446.19C487.52 446.629 487.55 454.281 482.716 453.837C471.144 452.781 459.016 447.522 451.184 438.634ZM97.6421 277.893C106.489 257.719 134.477 239.824 153.245 258.584C153.597 258.935 153.239 259.699 152.728 259.485C141.054 254.581 126.763 260.818 118.684 269.739C112.274 276.816 108.422 285.902 107.658 295.479C106.893 305.064 109.154 315.069 115.434 322.483C118.728 326.372 123.177 330.054 128.412 330.521C133.697 330.993 138.103 327.22 143.099 326.195C146.866 325.423 149.71 327.819 150.079 331.583C150.893 339.89 142.734 345.466 135.662 346.82C128.054 348.276 120.289 346.685 113.734 342.506C92.5609 329.008 87.9935 299.897 97.6421 277.893ZM296.293 80.161C300.141 76.4335 306.685 80.139 305.265 85.4561C302.246 96.7723 295.83 106.337 288.722 115.415C281.883 124.149 274.555 132.542 266.702 140.353C258.9 148.113 250.424 155.294 241.515 161.708L238.832 163.635C232.518 168.147 225.83 172.71 218.762 175.959C217.056 190.863 213.717 205.567 208.666 219.646C203.801 233.202 197.611 246.303 190.111 258.564L189.034 260.32C182.141 271.517 173.853 284.032 162.157 290.17C161.807 290.355 161.455 290.468 161.108 290.534C163.725 292.302 165.936 294.527 167.25 297.723C168.69 301.222 165.68 304.524 162.794 305.68C156.691 308.124 150.738 303.987 145.253 299.573C145.021 300.102 144.802 300.637 144.614 301.175C143.387 304.7 143.026 308.302 139.863 310.64C138.36 311.752 136.508 310.757 135.562 309.498C132.461 305.367 135.671 299.739 138.398 296.363C138.776 295.897 139.166 295.453 139.567 295.028C138.415 294.169 137.29 293.408 136.201 292.823C129.795 289.384 120.299 288.775 116.61 296.387C116.328 296.972 115.439 296.67 115.439 296.065C115.449 286.714 124.898 281.636 133.098 280.945C139.089 280.441 144.884 282.571 150.277 285.051L151.283 285.52C153.29 286.464 155.357 287.355 157.336 288.352C157.014 287.491 157.019 286.479 157.526 285.475C163.728 273.198 174.377 263.214 182.057 251.843C189.673 240.563 196.212 228.49 201.432 215.885C206.497 203.649 210.466 191.03 213.242 178.159C212.328 178.35 211.297 177.525 211.362 176.557C211.517 174.217 212.646 172.108 214.63 171.21C216.815 159.103 217.931 146.791 217.866 134.38C217.861 133.418 219.236 133.453 219.316 134.38C220.282 145.415 220.36 156.558 219.548 167.635C224.709 162.822 230.151 158.247 235.12 153.306C242.597 145.872 249.83 138.239 256.808 130.323C263.927 122.247 270.655 113.874 276.809 105.015L280.029 100.369C284.98 93.2459 290.065 86.1978 296.293 80.161ZM286.586 0.648788C329.047 -2.03801 374.395 3.25192 412.535 23.4568C433.482 34.5523 449.673 51.3226 461.241 72.1926C468.148 84.655 473.389 98.4551 475.374 112.643C477.412 127.221 475.019 140.22 465.836 151.808C462.189 156.41 456.046 151.27 456.945 146.561C462.442 117.754 453.526 89.2924 437.713 65.4437C414.767 30.8364 374.694 15.4633 335.678 8.60566C316.508 5.238 297.066 3.83028 277.618 4.51532C262.791 5.03824 247.582 6.43864 233.511 11.4954C232.918 11.7087 232.682 10.7716 233.253 10.5509C250.037 4.05305 268.773 1.77622 286.586 0.648788ZM349.559 65.7877C351.745 64.3831 354.42 65.8243 355.171 68.1032C357.82 76.1375 352.267 86.7519 348.553 93.7047C344.35 101.573 338.945 108.929 333.363 115.839C322.197 129.659 307.521 141.191 291.416 148.439C290.43 148.883 289.28 147.676 290.185 146.823C302.646 135.06 313.945 122.449 323.725 108.302C328.531 101.35 332.539 94.0164 336.367 86.4831C339.792 79.7415 343.013 69.9941 349.559 65.7877ZM420.972 75.2522C422.369 70.3074 430.325 71.1493 429.996 76.4905C429.145 90.2884 422.724 104.139 415.746 115.832C408.561 127.873 399.463 138.604 389.033 147.871C388.519 148.328 387.816 147.624 388.281 147.109C397.28 137.123 404.548 125.748 409.931 113.369C415.307 101.008 417.336 88.111 420.972 75.2522ZM381.427 73.0181C382.949 68.7186 390.233 69.0376 389.786 74.1654C388.558 88.2615 380.397 103.034 372.839 114.677C364.819 127.029 354.581 137.911 343.139 147.051C342.711 147.393 342.105 146.826 342.523 146.427C352.8 136.611 361.134 125.273 367.732 112.627C371.1 106.174 373.924 99.4542 376.155 92.5129C378.218 86.0913 379.187 79.3476 381.427 73.0181Z" transform="translate(-43.331482 60.659668)" id="ðŸ–-Ink" fill="#000000" fill-rule="evenodd" stroke="none" />
    </g>
    <g id="Component-2" transform="matrix(0.9998477 -0.017452406 0.017452406 0.9998477 110.472046 223.60251)">
      <path d="M380.115 56.7577C370.849 125.453 306.162 133.05 294.669 64.8523C296.514 63.9671 297.841 62.2244 297.564 58.8413C297.499 43.9794 301.708 28.2717 313.941 20.0066C326.582 11.4785 341.376 10.6327 356.004 10.8479C383.92 10.1193 383.333 35.692 380.115 56.7577M284.543 26.8816C275.782 26.4768 264.698 26.8155 256.849 32.6657C254.692 26.2978 249.085 19.4986 243.421 15.863C264.475 16.5383 286.147 14.2673 307.359 12.5043C302.282 16.2976 297.558 21.9965 294.488 28.5849C291.639 26.9199 287.559 27.0754 284.543 26.8816M245.925 64.0406C221.632 155.688 160.992 115.742 154.38 103.997C142.456 84.561 140.213 37.3143 150.6 24.6819C165.468 13.2585 186.518 16.1985 204.083 15.9184C236.352 16.3956 259.27 26.9753 245.925 64.0406M408.8 21.8889C402.2 20.943 395.146 20.7523 389.009 23.9373C387.12 15.1354 381.188 7.77687 374.491 4.5386C373.68 3.42439 373.802 2.82573 371.032 2.99297C354.028 -2.60794 335.001 0.355495 318.66 6.09915C292.854 8.48097 265.778 10.359 239.755 13.6409C215.376 1.64228 141.807 -0.116396 137.235 29.4572C131.485 28.5145 121.69 23.5538 116.858 30.2828C81.4103 23.6965 44.7827 32.85 9.1816 36.9265C0.220329 38.7353 -4.39541 58.2266 5.7769 57.9603C11.4958 56.2592 5.60098 45.8232 13.3017 45.0382C47.6509 40.9264 81.2489 35.0933 115.95 34.4105C114.743 40.9776 138.901 41.4047 139.258 37.5699C139.31 37.5987 139.364 37.6179 139.417 37.6434C133.447 62.0263 138.835 97.1167 149.624 112.236C164.739 132.034 202.689 137.714 219.516 124.976C241.222 113.22 263.803 54.2044 257.46 34.598C268.972 30.5991 280.353 31.7997 292.3 33.8363C289.565 42.3038 284.843 63.1479 291.636 64.9556C290.389 106.339 324.754 132.161 356.433 115.185C383.852 101.078 393.441 56.4264 390.086 29.3241C393.5 36.5527 422.16 28.6828 408.8 21.8889" transform="matrix(1 6.6273285E-09 -6.6273285E-09 1 -1.9434509 10.651825)" id="ðŸ–-Ink" fill="#000000" fill-rule="evenodd" stroke="none" />
    </g>
  </g>
</svg>